<svg height="512" viewBox="0 0 60 60" width="512" xmlns="http://www.w3.org/2000/svg"><g id="Page-1" fill="none" fill-rule="evenodd"><g id="033---Searching-Map" fill="rgb(0,0,0)" fill-rule="nonzero"><path id="Shape" d="m.434 59.826c.16677445.1138096.36409377.1744696.566.174.12273327-.0004445.24436839-.0231452.359-.067l12.641-4.86 12.64 4.862h.029c.2122302.0826887.4477698.0826887.66 0h.029l13-5c.3871422-.1484345.6425299-.5203778.642-.935v-11.1l.042-.026 2.308 2.412c-.2016982.6905519-.0063834 1.4360548.508 1.939l9.192 9.193c.7809997.7807639 2.0470003.7807639 2.828 0l3.536-3.536c.7807639-.7809997.7807639-2.0470003 0-2.828l-9.192-9.193c-.5002142-.495508-1.2241306-.6914896-1.906-.516l-2.354-2.452c3.3912982-5.6925014 2.4811412-12.9613963-2.209-17.642-.8282251-.8232164-1.7525416-1.5437333-2.753-2.146v-17.105c-.0004403-.32923245-.1629065-.63715331-.4344236-.82335929-.2715171-.18620598-.6172912-.22683556-.9245764-.10864071l-12.641 4.862-12.641-4.862c-.0521719-.01333547-.1053505-.02236579-.159-.027-.0586596-.01793208-.1189558-.02999132-.18-.036-.007 0-.012 0-.018 0h-.015c-.0699405.00622436-.1390062.01997044-.206.041-.0465046.00425004-.0926307.01193772-.138.023l-13 5c-.38617174.14758648-.64171584.5175889-.643.931v53c-.00052612.3300875.16187347.6391706.434.826zm38.566-6.512-11 4.231v-13.621c3.5260663 1.4360149 7.4739337 1.4360149 11 0zm19-1.848-3.536 3.534-9.193-9.19 3.536-3.536zm-11.3-9.916-2.125 2.124-1.875-1.963c.364-.3.7153333-.619 1.054-.957.3714562-.3742939.7226246-.76819 1.052-1.18zm-.7-11.05c.0003194 5.9635136-4.2120507 11.0967676-10.0609357 12.260399-5.8488851 1.1636314-11.7052411-1.9664568-13.987475-7.4759852s-.3546931-11.8639713 4.6037893-15.1771188c4.9584825-3.3131475 11.5668593-2.6622147 15.7836214 1.554705 2.3516293 2.3388815 3.6698984 5.5213077 3.661 8.838zm-7-13.421c-3.5258161-1.437292-7.4741839-1.437292-11 0v-10.391l11-4.23zm-37-10.391 11-4.23v33.542c0 .5522847.4477153 1 1 1s1-.4477153 1-1v-33.543l11 4.231v11.417c-1.0003499.6016434-1.9246617 1.3214852-2.753 2.144-5.6618712 5.6624768-5.6618712 14.8425232 0 20.505.8284877.8229183 1.7527666 1.543406 2.753 2.146v14.645l-11-4.23v-10.315c0-.5522847-.4477153-1-1-1s-1 .4477153-1 1v10.314l-11 4.231z"/><path id="Shape" d="m26.076 23.077c-3.0033433 3.0028408-3.9020007 7.5192158-2.2769032 11.4430126 1.6250976 3.9237968 5.4538897 6.4822298 9.7009032 6.4822298s8.0758056-2.558433 9.7009032-6.4822298c1.6250975-3.9237968.7264401-8.4401718-2.2769032-11.4430126-1.959304-1.9870799-4.633416-3.1057746-7.424-3.1057746s-5.464696 1.1186947-7.424 3.1057746zm15.924 7.423c-.0005993 4.0523792-2.8634427 7.5401206-6.8379826 8.3305694-3.97454.7904488-7.9540229-1.3365042-9.5051078-5.0802874-1.5510848-3.7437832-.2418554-8.0618998 3.1271317-10.3139439 3.3689872-2.2520442 7.8596011-1.8109098 10.7259587 1.0536619 1.5992664 1.5904408 2.4958713 3.7545354 2.49 6.01z"/><path id="Shape" d="m28.9 25.906c-1.22146 1.2161266-1.9056272 2.8703711-1.9 4.594 0 .5522847.4477153 1 1 1s1-.4477153 1-1c0-2.4852814 2.0147186-4.5 4.5-4.5.5522847 0 1-.4477153 1-1s-.4477153-1-1-1c-1.7264641-.0050866-3.3830829.6813298-4.6 1.906z"/><path id="Shape" d="m5 8c-.55228475 0-1 .44771525-1 1v2c0 .5522847.44771525 1 1 1s1-.4477153 1-1v-2c0-.55228475-.44771525-1-1-1z"/><path id="Shape" d="m5 14c-.55228475 0-1 .4477153-1 1v15c0 .5522847.44771525 1 1 1s1-.4477153 1-1v-15c0-.5522847-.44771525-1-1-1z"/></g></g></svg>