<svg xmlns="http://www.w3.org/2000/svg" viewBox="0 0 384.01 512"><defs><style>.cls-1{fill:#010101;}</style></defs><g id="Livello_2" data-name="Livello 2"><g id="Livello_1-2" data-name="Livello 1"><path class="cls-1" d="M192,0C86.12,0,0,86.13,0,192,3.82,337.58,175.81,506.74,192,512c16.19-5.06,188.2-174.57,192-320C384,86.13,297.88,0,192,0ZM297.82,151.33c-10.11,21.86-41,91.12-61.66,136.25,0,0-5.41,0-5.42,0L198.2,214.21c-12.9,24.21-27.19,49.38-39.41,73.32a58.18,58.18,0,0,1-5.91,0c-18.68-41.73-38-83.18-56.83-124.88-4.35-10.2-19.6-26.59-30-26.5,0-1.18-.06-3.82-.08-5.42h64.33l-.05,5.33c-7.56.34-20.61,4.95-17.23,12.93,9.07,18.73,41.17,91.31,49.85,109.73,6-11.34,22.95-41.56,29.92-54.34-5.46-10.72-23.49-50.73-28.9-60.8-4.08-6.57-14.31-7.38-22.19-7.49,0-1.68.09-3,.06-5.29l56.54.17v4.92c-7.65.2-14.9,2.93-11.61,9.93,7.6,15.11,12.05,25.87,19,39.84,2.23-4.09,13.66-26.53,19.11-38.38,3.29-7.87-1.63-10.82-15.4-11.18.18-1.29.06-3.89.18-5.13l48.84,0,0,4.88c-9,.34-18.27,4.91-23.12,12l-23.51,46.68c2.58,6.17,25.19,54.24,27.57,59.57L288,146.72C284.53,138,273.5,136.09,269.18,136c0-1.38,0-3.5.05-5.26l50.75.14.07.24L320,136C308.83,136.29,302,142,297.82,151.33Z"/></g></g></svg>